inDegrees=no
num_controls=7
num_derivatives=13
num_iterations=36
num_multipliers=7
num_parameters=0
num_slacks=7
num_states=26
objective=0.426592
objective_accelerations=0.057409
objective_balance=0.001115
objective_effort=0.015337
objective_height=0.346726
objective_ligament=0.006006
solver_duration=585.015129
status=Solve_Succeeded
success=true
DataType=double
version=3
OpenSimVersion=4.5
endheader
time	/jointset/ground_pelvis/pelvis_tilt/value	/jointset/ground_pelvis/pelvis_tx/value	/jointset/ground_pelvis/pelvis_ty/value	/jointset/hip_l/hip_flexion_l/value	/jointset/hip_l/hip_adduction_l/value	/jointset/hip_l/hip_rotation_l/value	/jointset/back/lumbar_extension/value	/jointset/patellofemoral_l/patellar_flexion_l/value	/jointset/knee_l/knee_flexion_l/value	/jointset/knee_l/knee_adduction_l/value	/jointset/knee_l/knee_rotation_l/value	/jointset/ankle_l/ankle_angle_l/value	/jointset/subtalar_l/subtalar_angle_l/value	/jointset/ground_pelvis/pelvis_tilt/speed	/jointset/ground_pelvis/pelvis_tx/speed	/jointset/ground_pelvis/pelvis_ty/speed	/jointset/hip_l/hip_flexion_l/speed	/jointset/hip_l/hip_adduction_l/speed	/jointset/hip_l/hip_rotation_l/speed	/jointset/back/lumbar_extension/speed	/jointset/patellofemoral_l/patellar_flexion_l/speed	/jointset/knee_l/knee_flexion_l/speed	/jointset/knee_l/knee_adduction_l/speed	/jointset/knee_l/knee_rotation_l/speed	/jointset/ankle_l/ankle_angle_l/speed	/jointset/subtalar_l/subtalar_angle_l/speed	/forceset/tau_hip_flexion_l	/forceset/tau_hip_adduction_l	/forceset/tau_hip_rotation_l	/forceset/tau_knee_flexion_l	/forceset/tau_ankle_angle_l	/forceset/tau_subtalar_angle_l	/forceset/tau_lumbar_extension	lambda_cid13_p0	lambda_cid13_p1	lambda_cid13_p2	lambda_cid13_p3	lambda_cid13_p4	lambda_cid13_p5	lambda_cid14_p0	/jointset/ground_pelvis/pelvis_tilt/accel	/jointset/ground_pelvis/pelvis_tx/accel	/jointset/ground_pelvis/pelvis_ty/accel	/jointset/hip_l/hip_flexion_l/accel	/jointset/hip_l/hip_adduction_l/accel	/jointset/hip_l/hip_rotation_l/accel	/jointset/back/lumbar_extension/accel	/jointset/patellofemoral_l/patellar_flexion_l/accel	/jointset/knee_l/knee_flexion_l/accel	/jointset/knee_l/knee_adduction_l/accel	/jointset/knee_l/knee_rotation_l/accel	/jointset/ankle_l/ankle_angle_l/accel	/jointset/subtalar_l/subtalar_angle_l/accel	gamma_cid13_p0	gamma_cid13_p1	gamma_cid13_p2	gamma_cid13_p3	gamma_cid13_p4	gamma_cid13_p5	gamma_cid14_p0
0	0.04793548931030504	0.1081226059353029	0.9028613249731497	0.1266922784136757	-0.3701070300151078	-0.2255054090403227	-0.2144969558742783	0.2051545070142014	0.2051545070141877	-0.1744847520895552	-0.1606835146612084	0.09024313228550125	0.07896033094121846	0	0	0	0	0	0	0	0	0	0	0	0	0	0.1173878828642878	-0.03405122320652207	-0.01049961041578405	-0.2500498339457845	0.1904200069064577	-0.1100714460663793	-0.05034819562583474	28.87144137593883	43.93663422365173	-8.642448092246136	-17.53280980683559	-440.8604907820967	-28.56235149877132	-26.26516769634446	-3.65366924359533	-1.199410108591646	-0.8403949976841956	11.83622870847782	0.03831212485916934	3.183222788328302	-3.74724136941789	10.37107930961651	10.37107930961774	2.612549086863703	-0.7884026918468626	3.234964623335228	0.9731971646088203	2.69588474320162e-08	6.409387788142404e-07	-2.599313442584938e-07	6.067622013259389e-08	-4.546721979822094e-08	3.325652811636404e-07	1.121053853440684e-07
0.01	0.04776320879969418	0.1080654795772637	0.9028203614943237	0.1272645220647196	-0.3701058967992197	-0.2253376301691147	-0.2146869365157258	0.2056644352439486	0.2056644352439648	-0.1743583637618374	-0.1607116844971621	0.09040606348842621	0.07900839199777482	-0.03406610043433705	-0.011168197473581	-0.00819079319777442	0.113627855902937	4.368379348495582e-05	0.03352470259539171	-0.03758020697258163	0.1019561096216256	0.1019561096216296	0.02489418769489779	-0.005702994067855911	0.03290993218843747	0.009513375777793799	0.1151193593577306	-0.04242039653741495	-0.01032648883178649	-0.2504320452474265	0.1922186287703653	-0.1028441092287142	-0.04799421347294328	29.9802926824828	40.60832414898642	-8.117161846288129	-20.20858880585459	-440.3487873625766	-35.29804524947184	-26.26486678350772	-3.224573970690067	-1.036951312203833	-0.8081451891104365	11.00293750024217	-0.04010828369135983	3.432492113451041	-3.701022163107799	10.10342391713607	10.10342391713569	2.370414160521553	-0.4716602245393259	3.367580594470984	0.9255123335947201	7.258709951631261e-09	9.016665158703782e-07	-1.53269662568426e-07	8.975669473980869e-08	-1.819242732346552e-07	3.158236809716882e-07	1.27607172085054e-07
0.02	0.04726196857926091	0.1079043858953951	0.9026975453418624	0.128948418968592	-0.3701098277034546	-0.2248355246482947	-0.215240241587286	0.207193033995733	0.2071930339957302	-0.1739945214471834	-0.160798966765717	0.09090780862880342	0.07914860772195512	-0.06579194196214828	-0.02079346476589277	-0.01637053472698545	0.2223306505674591	-0.00101282402441763	0.06686532992304517	-0.07266488602230196	0.2037341043912764	0.2037341043912739	0.04749079737855131	-0.01182248654710046	0.06776278749179615	0.01843093352479255	0.1128508358512613	-0.05078956986828205	-0.01015336724852375	-0.2508142565488361	0.1940172506343458	-0.09561677239098985	-0.04564023132003933	31.13621386700051	37.28943428379745	-7.613554622508694	-22.93224983350761	-438.9736377194387	-41.83859787375763	-26.26402300194327	-3.185617462289828	-0.8908240723381027	-0.8381846639715037	10.85121646079489	-0.1817261974183521	3.14640773478064	-3.248135784845445	10.33545633922161	10.33545633922076	2.153033484614821	-0.8717023741246547	3.623549246319124	0.8540335584496904	-1.244142752875367e-08	1.162394252926516e-06	-4.66079808783581e-08	1.188371693470235e-07	-3.183813266710895e-07	2.990820807797361e-07	1.431089588260395e-07
0.03	0.04645086859650624	0.1076517591146488	0.902493042973569	0.1316999568686112	-0.370126911475406	-0.2240043027108846	-0.216133581979256	0.2097320415441545	0.2097320415441651	-0.1734121840060483	-0.1609490543284169	0.09176061991514278	0.07937609275846719	-0.09643510327894995	-0.02977313374892093	-0.02451661422934723	0.3276292517701858	-0.002295000369766756	0.09918911806037413	-0.1057876255627243	0.3033416794466681	0.3033416794466661	0.06897646249600607	-0.01803172103245217	0.1023998819390762	0.02707104702866385	0.1094750335496855	-0.04590535020541459	-0.009192538570037224	-0.2459447296345474	0.1862803482235242	-0.09675016304482077	-0.04322761449481276	28.51919194448933	38.06226564349424	-7.533877103874529	-20.57239169850906	-439.4980109033785	-39.57507510253441	-26.26261033178323	-3.004717193782839	-0.9077007820152588	-0.8008851155727246	10.31702964037407	-0.08529178072847192	3.246915341642332	-3.312008016732222	9.664520527353869	9.664520527354432	2.146491627469177	-0.4710721265168405	3.323887095749253	0.869568089016812	-1.359038081446683e-08	1.346226745114513e-06	-1.193389439572215e-07	1.497986549971372e-07	-4.694748297713566e-07	3.842377540217306e-07	1.802653399859327e-07
0.04	0.04533312665509115	0.1073081031499255	0.9022074667058106	0.1354940503187085	-0.37015358269633	-0.2228555326944069	-0.2173516827622541	0.2132453473308694	0.2132453473308655	-0.1726149581932791	-0.1611563418641057	0.09294782165631778	0.07969009249855019	-0.1271203336919956	-0.03899930156131684	-0.03258531461995228	0.430841760587412	-0.002930313820524804	0.1303749457350296	-0.1376169642267713	0.3985937520482957	0.3985937520482958	0.09046847169980014	-0.02326248114886645	0.1346408784590244	0.03573387423897507	0.1060992312478943	-0.04102113054254379	-0.008231709891689821	-0.2410752027203687	0.1785434458126616	-0.09788355369865859	-0.04081499766972419	25.94614564332617	38.84641416095226	-7.477728174494115	-18.26162765476774	-439.2133436700847	-37.12212478115705	-26.25964995182954	-3.194031281538288	-0.9401238382119488	-0.8227088416201397	10.43399798369483	-0.05235361850011611	2.918815642245908	-2.989455609570208	9.46435584846887	9.464355848468319	2.154302301882726	-0.6760075003372311	3.144329660852449	0.8585762997375973	-1.435683545699088e-08	1.528473768336156e-06	-1.957687244540011e-07	1.807989243800941e-07	-6.208701153389192e-07	4.714944019737036e-07	2.178682076286899e-07
0.05	0.04390971997848429	0.1068719109541058	0.9018411157212061	0.140309446747616	-0.3701848576776754	-0.2214013866418966	-0.2188803879803542	0.2176942016761671	0.2176942016761624	-0.1716046792114161	-0.1614139449456004	0.09444875168287001	0.08009025508650459	-0.1573542928048101	-0.04818126174378247	-0.04070774517138197	0.5317111470359149	-0.003362899194298023	0.1603441163055003	-0.1678628392319615	0.4908131756479215	0.4908131756479369	0.1113646114745949	-0.02819313059404725	0.1654417614228175	0.04423466376678049	0.1018040133376437	-0.0391568102294872	-0.007147450046802285	-0.2367722884375024	0.1724511860800013	-0.09656944142507527	-0.03761672223908024	24.12453891862213	38.4753575088734	-7.282315342715014	-17.34368272208431	-438.1662216066683	-36.90441314936709	-26.25406333550499	-2.907055237098206	-0.8985143199629593	-0.8105649898388709	9.834457564489494	-0.04463893195407002	3.019522086537786	-3.002967421309331	9.046100533766548	9.046100533769126	2.024101550325617	-0.39190996219533	3.032509480822765	0.8360159449294809	-1.764629641563999e-08	1.580658457047269e-06	-1.938822868950556e-07	1.898777270338615e-07	-6.838131867554245e-07	4.804426366706222e-07	2.25528786802779e-07
